<svg width="441" height="441" viewBox="0 0 441 441" fill="none" xmlns="http://www.w3.org/2000/svg">
<g clip-path="url(#clip0_1_32637)">
<mask id="mask0_1_32637" style="mask-type:luminance" maskUnits="userSpaceOnUse" x="-129" y="-152" width="724" height="727">
<path d="M595 -151.167H-129V575H595V-151.167Z" fill="white"/>
</mask>
<g mask="url(#mask0_1_32637)">
<g opacity="0.540017">
<path d="M249.081 95.5793L235.636 108.485L217.689 97.1912L231.133 84.2851L249.081 95.5793Z" fill="#666666"/>
</g>
<g opacity="0.355324">
<path d="M320.535 81.5407L319.339 95.9056L303.195 98.5796L304.391 84.2147L320.535 81.5407Z" fill="#FFA63A"/>
</g>
<g opacity="0.322728">
<path d="M194.966 87.149L194.242 98.4996L181.546 100.858L182.27 89.5067L194.966 87.149Z" fill="#3E80FF"/>
</g>
<g opacity="0.581984">
<path d="M306.673 118.93L317.512 122.275L316.848 135.208L306.01 131.864L306.673 118.93Z" fill="#FF3399"/>
</g>
<g opacity="0.288157">
<path d="M103.781 136.879L94.6185 143.58L84.691 135.3L93.8538 128.597L103.781 136.879Z" fill="#FFA63A"/>
</g>
<g opacity="0.687758">
<path d="M-0.0266589 296.66L7.33537 305.312L-0.139798 315.872L-7.50182 307.22L-0.0266589 296.66Z" fill="#3E80FF"/>
</g>
<path d="M28.1288 201.586C26.9505 201.203 25.774 200.808 24.6753 200.274C21.6137 198.785 19.1358 196.127 17.8598 192.963C16.0425 188.46 16.5855 183.073 13.8913 179.035C11.5094 175.466 7.14546 173.818 2.96528 172.887C-1.21492 171.955 -5.60146 171.487 -9.34454 169.402C-14.0876 166.76 -17.0814 161.951 -20.1946 157.453" stroke="#FFA63A" stroke-opacity="0.961543" stroke-width="4.829" stroke-miterlimit="10"/>
<path d="M306.071 80.0942C303.575 82.801 302.24 86.568 303.258 90.0663C304.918 95.774 311.679 98.351 317.607 98.3592C319.497 98.3619 321.44 98.1758 323.134 97.3335C326.847 95.4872 328.425 91.0721 329.328 87.0155C331.757 76.0994 331.767 64.6487 329.359 53.728C328.524 49.9419 327.382 46.1722 325.361 42.8673C324.824 41.9895 324.232 41.1535 323.593 40.3529" stroke="#FFB61A" stroke-width="4.829" stroke-miterlimit="10"/>
<path d="M61.0872 201.546C61.0555 201.546 61.0238 201.546 60.9921 201.546C56.3839 201.519 51.3204 201.321 47.7203 204.205C43.4406 207.634 43.036 214.096 44.3908 219.42C45.1564 222.428 46.2316 226.025 44.1374 228.312C42.5917 230.002 40.0151 230.092 37.7291 230.111C29.6556 230.178 20.2255 231.687 16.3928 238.814C13.2443 244.667 14.5973 253.253 9.02161 256.854C4.03958 260.072 -2.93526 256.667 -8.36164 259.056C-13.3762 261.262 -14.8523 267.084 -17.1401 272.316" stroke="#FF3399" stroke-width="4.829" stroke-miterlimit="10"/>
<path d="M126.72 117.404C127.278 116.189 127.748 114.953 128.003 113.678C128.821 109.586 127.175 105.096 123.91 102.509C118.698 98.3828 109.842 98.6088 107.243 92.4799C104.887 86.9257 109.896 80.5517 108.409 74.7024C107.526 71.2295 104.533 68.7324 101.513 66.8172C95.5962 63.0656 88.2458 59.7624 86.4231 52.9846C86.1172 51.8472 85.9968 50.6835 85.9443 49.5081" stroke="#FF3399" stroke-width="4.829" stroke-miterlimit="10"/>
<path d="M189.324 139.745C188.28 139.093 187.269 138.391 186.297 137.644C177.835 131.141 171.79 120.835 172.393 110.16C172.997 99.4866 181.422 89.1913 192.053 88.3862C194.797 88.1783 197.673 88.6068 199.973 90.1235C202.273 91.6403 203.875 94.3807 203.55 97.122C203.202 100.044 200.862 102.33 198.378 103.894C187.749 110.592 173.515 108.042 162.593 101.837C153.338 96.5792 145.313 88.6612 141.382 78.7481C138.141 70.5769 137.842 61.2684 140.553 52.9065C141.503 49.9737 142.898 47.0436 145.335 45.162C147.387 43.5762 149.991 42.8845 152.561 42.5523C153.151 42.4761 153.75 42.4207 154.354 42.3889" stroke="#8678DE" stroke-width="4.829" stroke-miterlimit="10"/>
<path d="M346.125 161.656C346.667 162.452 347.357 163.162 348.101 163.774C352.562 167.444 359.201 167.917 364.42 165.451C369.639 162.985 373.391 157.888 374.835 152.286C375.969 147.895 375.663 142.87 372.861 139.31C371.13 137.112 368.52 135.629 365.75 135.27C362.937 134.905 359.329 136.601 359.657 139.427C359.782 140.504 360.473 141.429 361.237 142.196C365.189 146.165 371.496 147.093 376.879 145.568C382.262 144.044 386.824 140.408 390.628 136.295C394.39 132.228 397.676 127.309 398.04 121.773C398.495 114.848 393.756 107.964 387.192 105.77C384.962 105.024 382.161 105.034 380.282 106.203" stroke="#8678DE" stroke-width="4.829" stroke-miterlimit="10"/>
<path d="M357.113 275.729C358.84 275.653 360.614 275.846 362.318 276.115C365.804 276.664 369.369 277.477 372.817 276.727C376.266 275.978 379.576 273.078 379.396 269.543C379.316 267.979 378.576 266.487 378.628 264.921C378.734 261.666 382.151 259.506 385.344 258.911C388.537 258.318 391.92 258.654 394.952 257.487C398.492 256.123 401.125 252.637 401.473 248.849C401.502 248.539 401.518 248.223 401.525 247.904" stroke="#FF3399" stroke-width="4.829" stroke-miterlimit="10"/>
<path d="M222.405 183.06C223.686 182.561 224.882 181.878 225.938 180.966C229.05 178.281 230.226 173.143 227.907 169.902" stroke="#666666" stroke-width="4.829" stroke-miterlimit="10"/>
</g>
</g>
<defs>
<clipPath id="clip0_1_32637">
<rect width="441" height="441" fill="white"/>
</clipPath>
</defs>
</svg>
